<svg width="317" height="310" viewBox="0 0 317 310" fill="none" xmlns="http://www.w3.org/2000/svg">
<g filter="url(#filter0_d_18_2)">
<path d="M139.702 268.611C141.711 268.611 144.85 267.861 148.113 266.227C218.302 226.675 242.543 210.1 242.543 165.02V70.3536C242.543 57.4214 236.891 53.2804 226.471 48.8821C211.777 42.8554 164.693 25.9054 150.132 20.7571C146.741 19.7554 143.35 19 139.707 19C136.193 19 132.802 19.75 129.411 20.7571C114.85 26.0339 67.7661 42.9839 53.0714 48.8821C42.6518 53.1518 37 57.4214 37 70.3536V165.025C37 210.1 61.3589 226.546 131.42 266.221C134.688 267.855 137.693 268.611 139.702 268.611Z" fill="url(#paint0_linear_18_2)" shape-rendering="crispEdges"/>
</g>
<g filter="url(#filter1_d_18_2)">
<path d="M11 218.75C11 208.119 19.6185 199.5 30.25 199.5H76H108.184C112.745 199.5 116.165 203.673 115.271 208.145C114.935 209.827 115.207 211.573 116.04 213.072L118.687 217.837C120.211 220.581 122.304 222.968 124.825 224.838L126.292 225.927C132.825 230.774 141.023 232.812 149.066 231.588L154.435 230.771C157.758 230.265 160.901 228.932 163.576 226.895C167.698 223.754 170.445 219.14 171.241 214.019L171.544 212.073C171.681 211.196 171.681 210.304 171.544 209.427C170.733 204.211 174.767 199.5 180.047 199.5H206H251.75C262.381 199.5 271 208.119 271 218.75C271 229.381 262.381 238 251.75 238H30.25C19.6185 238 11 229.381 11 218.75Z" fill="url(#paint1_linear_18_2)"/>
</g>
<g filter="url(#filter2_d_18_2)">
<path d="M255.931 60.0863C242.739 70.8509 229.753 68.3359 222.621 65.5184C231.225 60.0786 238.909 55.0446 242.699 50.5466C254.744 36.2447 258.987 7.7711 250.732 7.7711C244.032 7.7711 253.764 33.0635 226.213 51.6912C231.872 32.0835 221.994 9.55117 215.057 7.7711C213.445 7.36149 207.917 7.7711 212.08 13.632C225.709 32.8147 219.561 50.2939 214.949 58.7196C207.941 63.1258 201.4 67.5243 195.455 71.9994C199.487 60.046 200.285 47.2967 197.773 34.9623C193.673 14.8761 206.905 20.0134 203.547 11.3925C201.368 5.80344 186.787 12.8242 189.045 27.283C190.478 36.4629 193.276 44.3335 191.609 56.6601C187.525 55.0599 178.131 50.5504 171.595 40.9188C162.371 27.3443 149.433 45.704 189.74 65.6638C188.895 68.7914 187.748 72.2099 186.311 75.927C174.817 82.0023 167.435 90.9716 162.729 99.803C156.017 98.6623 149.651 98.5436 144 98.5436C138.352 98.5436 131.991 98.6623 125.279 99.803C120.565 90.9677 113.187 82.0023 101.693 75.927C100.369 72.5646 99.2249 69.1391 98.2641 65.6638C138.567 45.704 125.633 27.3443 116.409 40.9188C109.873 50.5542 100.475 55.0599 96.3909 56.6601C94.724 44.3335 97.522 36.4667 98.9547 27.283C101.209 12.8242 86.6357 5.80344 84.4529 11.3925C81.0953 20.0134 94.3271 14.8761 90.2234 34.9623C87.7146 47.2975 88.5152 60.0464 92.5491 71.9994C86.6039 67.5243 80.0595 63.1296 73.0626 58.7196C68.4429 50.2939 62.2993 32.8109 75.9201 13.632C80.0872 7.7711 74.5548 7.35766 72.9475 7.7711C66.0101 9.55117 56.1358 32.0835 61.7913 51.6912C34.2442 33.0673 43.9637 7.7711 37.2724 7.7711C29.0134 7.7711 33.252 36.2447 45.2972 50.5466C49.0953 55.0446 56.7828 60.0786 65.387 65.5184C58.2472 68.3359 45.2654 70.8509 32.0693 60.0863C30.4898 58.7885 24.9375 56.1663 24.9375 62.7468C24.9375 68.1062 40.4236 80.7773 60.3268 76.8994C60.5928 83.6139 63.6249 120.544 97.4783 134.635C97.1172 136.909 96.2718 139.539 94.47 142.525C84.2663 159.422 88.9495 177.709 107.325 192.7C110.206 195.047 110.817 199.296 111.488 206.014C112.365 214.716 113.556 226.636 126.462 232.907C132.661 235.893 138.388 237.344 144 237.344C149.612 237.344 155.347 235.893 161.522 232.911C174.452 226.629 175.643 214.716 176.508 206.011C177.179 199.296 177.79 195.047 180.667 192.704C199.051 177.713 203.734 159.426 193.522 142.525C191.72 139.543 190.879 136.913 190.518 134.639C224.367 120.548 227.399 83.6139 227.665 76.9032C247.568 80.7811 263.062 68.1062 263.062 62.7468C263.062 56.1663 257.514 58.7885 255.931 60.0863ZM182.41 129.632C182.132 134.241 182.727 139.738 186.612 146.162C196.649 162.776 187.482 177.307 175.448 187.119C163.427 196.919 174.528 218.241 157.875 226.326C154.053 228.172 149.294 229.929 144 229.929C138.706 229.929 133.951 228.172 130.129 226.326C113.48 218.241 124.577 196.915 112.552 187.119C100.53 177.307 91.3506 162.776 101.388 146.162C105.273 139.734 105.872 134.237 105.594 129.628C68.5064 118.121 68.2366 75.8428 68.2366 75.8428C100.002 75.8428 114.27 92.9928 120.696 108.432C122.192 108.014 123.672 107.727 125.156 107.436C120.858 113.098 119.672 120.226 126.811 133.682C137.067 153.003 133.427 188.022 144.004 188.022C154.585 188.022 150.949 153.003 161.197 133.682C168.336 120.222 167.154 113.098 162.856 107.436C164.336 107.727 165.82 108.011 167.32 108.432C173.746 93.0005 188.009 75.8428 219.767 75.8428C219.763 75.8466 219.494 118.124 182.41 129.632Z" fill="url(#paint2_linear_18_2)"/>
</g>
<path d="M107.019 119.832C104.019 116.88 97.4069 110.977 106.999 114.449C116.6 117.922 107.019 111.268 105.221 108.317C103.416 105.365 116.346 111.862 116.346 111.862C100.169 83.8168 78.1584 83.8168 78.1584 83.8168C78.1545 114.809 110.024 122.779 107.019 119.832ZM182.779 108.317C180.981 111.268 171.4 117.922 181.005 114.449C190.601 110.977 183.989 116.88 180.981 119.832C177.973 122.783 209.838 114.809 209.838 83.8168C209.838 83.8168 187.831 83.8168 171.654 111.862C171.658 111.862 184.596 105.365 182.779 108.317ZM162.046 205.111C162.046 200.98 151.822 199.794 144 199.794C136.182 199.794 125.962 200.98 125.962 205.111C125.962 209.004 132.36 217.33 142.139 218.295V221.951C135.047 221.56 129.586 218.701 129.153 219.734C128.589 220.68 134.923 226.51 144 226.46C153.077 226.51 159.419 220.68 158.851 219.734C158.418 218.705 152.954 221.564 145.861 221.951V218.295C155.648 217.33 162.046 209.004 162.046 205.111ZM108.845 148.125C105.166 148.73 102.935 153.19 103.86 158.094C104.785 162.99 108.515 166.47 112.198 165.865C115.873 165.26 118.104 160.8 117.175 155.897C116.247 151 112.52 147.521 108.845 148.125ZM179.159 148.125C175.484 147.521 171.749 151 170.825 155.9C169.896 160.8 172.127 165.26 175.81 165.869C179.485 166.474 183.211 162.994 184.144 158.098C185.077 153.194 182.842 148.734 179.159 148.125Z" fill="black"/>
<path d="M110.837 137.495C110.329 138.149 118.108 143.046 120.938 152.176C124.061 161.229 120.545 169.349 121.358 169.632C122.033 170.221 127.419 161.685 123.95 151.318C120.616 140.917 111.04 136.649 110.837 137.495ZM177.167 137.495C176.964 136.649 167.384 140.917 164.042 151.314C160.577 161.681 165.971 170.218 166.638 169.628C167.451 169.349 163.939 161.229 167.062 152.172C169.896 143.046 177.671 138.149 177.167 137.495Z" fill="black"/>
<g filter="url(#filter3_d_18_2)">
<path d="M26.7614 226V211.455H31.6761C32.8172 211.455 33.75 211.661 34.4744 212.072C35.2036 212.48 35.7434 213.031 36.0938 213.727C36.4441 214.423 36.6193 215.2 36.6193 216.057C36.6193 216.914 36.4441 217.693 36.0938 218.393C35.7481 219.094 35.2131 219.653 34.4886 220.07C33.7642 220.482 32.8362 220.688 31.7045 220.688H28.1818V219.125H31.6477C32.429 219.125 33.0563 218.99 33.5298 218.72C34.0033 218.45 34.3466 218.086 34.5597 217.626C34.7775 217.162 34.8864 216.639 34.8864 216.057C34.8864 215.474 34.7775 214.954 34.5597 214.494C34.3466 214.035 34.0009 213.675 33.5227 213.415C33.0445 213.15 32.41 213.017 31.6193 213.017H28.5227V226H26.7614Z" fill="black"/>
</g>
<g filter="url(#filter4_d_18_2)">
<path d="M46.7614 226V211.455H55.5398V213.017H48.5227V217.932H55.0852V219.494H48.5227V224.438H55.6534V226H46.7614Z" fill="black"/>
</g>
<g filter="url(#filter5_d_18_2)">
<path d="M65.9659 213.017V211.455H76.875V213.017H72.3011V226H70.5398V213.017H65.9659Z" fill="black"/>
</g>
<g filter="url(#filter6_d_18_2)">
<path d="M94.7159 215.091C94.6307 214.371 94.285 213.812 93.679 213.415C93.0729 213.017 92.3295 212.818 91.4489 212.818C90.8049 212.818 90.2415 212.922 89.7585 213.131C89.2803 213.339 88.9063 213.625 88.6364 213.99C88.3712 214.355 88.2386 214.769 88.2386 215.233C88.2386 215.621 88.331 215.955 88.5156 216.234C88.705 216.509 88.9465 216.739 89.2401 216.923C89.5336 217.103 89.8414 217.252 90.1634 217.371C90.4853 217.484 90.7812 217.577 91.0511 217.648L92.5284 218.045C92.9072 218.145 93.3286 218.282 93.7926 218.457C94.2614 218.633 94.7088 218.872 95.1349 219.175C95.5658 219.473 95.9209 219.857 96.2003 220.325C96.4796 220.794 96.6193 221.369 96.6193 222.051C96.6193 222.837 96.4134 223.547 96.0014 224.182C95.5942 224.816 94.9976 225.321 94.2116 225.695C93.4304 226.069 92.4811 226.256 91.3636 226.256C90.322 226.256 89.42 226.088 88.6577 225.751C87.9001 225.415 87.3035 224.946 86.8679 224.345C86.437 223.744 86.1932 223.045 86.1364 222.25H87.9545C88.0019 222.799 88.1866 223.254 88.5085 223.614C88.8352 223.969 89.2472 224.234 89.7443 224.409C90.2462 224.58 90.786 224.665 91.3636 224.665C92.036 224.665 92.6397 224.556 93.1747 224.338C93.7098 224.116 94.1335 223.808 94.446 223.415C94.7585 223.017 94.9148 222.553 94.9148 222.023C94.9148 221.54 94.7798 221.147 94.5099 220.844C94.2401 220.541 93.8849 220.295 93.4446 220.105C93.0043 219.916 92.5284 219.75 92.017 219.608L90.2273 219.097C89.0909 218.77 88.1913 218.304 87.5284 217.697C86.8655 217.091 86.5341 216.298 86.5341 215.318C86.5341 214.504 86.7543 213.794 87.1946 213.188C87.6397 212.577 88.2363 212.103 88.9844 211.767C89.7372 211.426 90.5777 211.256 91.5057 211.256C92.4432 211.256 93.2765 211.424 94.0057 211.76C94.7348 212.091 95.3125 212.546 95.7386 213.124C96.1695 213.701 96.3968 214.357 96.4205 215.091H94.7159Z" fill="black"/>
</g>
<g filter="url(#filter7_d_18_2)">
<path d="M198.358 226H196.511L201.852 211.455H203.67L209.011 226H207.165L202.818 213.756H202.705L198.358 226ZM199.04 220.318H206.483V221.881H199.04V220.318Z" fill="black"/>
</g>
<g filter="url(#filter8_d_18_2)">
<path d="M222.761 226V211.455H227.676C228.817 211.455 229.75 211.661 230.474 212.072C231.204 212.48 231.743 213.031 232.094 213.727C232.444 214.423 232.619 215.2 232.619 216.057C232.619 216.914 232.444 217.693 232.094 218.393C231.748 219.094 231.213 219.653 230.489 220.07C229.764 220.482 228.836 220.688 227.705 220.688H224.182V219.125H227.648C228.429 219.125 229.056 218.99 229.53 218.72C230.003 218.45 230.347 218.086 230.56 217.626C230.777 217.162 230.886 216.639 230.886 216.057C230.886 215.474 230.777 214.954 230.56 214.494C230.347 214.035 230.001 213.675 229.523 213.415C229.045 213.15 228.41 213.017 227.619 213.017H224.523V226H222.761Z" fill="black"/>
</g>
<g filter="url(#filter9_d_18_2)">
<path d="M247.761 226V211.455H252.676C253.817 211.455 254.75 211.661 255.474 212.072C256.204 212.48 256.743 213.031 257.094 213.727C257.444 214.423 257.619 215.2 257.619 216.057C257.619 216.914 257.444 217.693 257.094 218.393C256.748 219.094 256.213 219.653 255.489 220.07C254.764 220.482 253.836 220.688 252.705 220.688H249.182V219.125H252.648C253.429 219.125 254.056 218.99 254.53 218.72C255.003 218.45 255.347 218.086 255.56 217.626C255.777 217.162 255.886 216.639 255.886 216.057C255.886 215.474 255.777 214.954 255.56 214.494C255.347 214.035 255.001 213.675 254.523 213.415C254.045 213.15 253.41 213.017 252.619 213.017H249.523V226H247.761Z" fill="black"/>
</g>
<defs>
<filter id="filter0_d_18_2" x="24.2" y="10.2" width="231.143" height="275.211" filterUnits="userSpaceOnUse" color-interpolation-filters="sRGB">
<feFlood flood-opacity="0" result="BackgroundImageFix"/>
<feColorMatrix in="SourceAlpha" type="matrix" values="0 0 0 0 0 0 0 0 0 0 0 0 0 0 0 0 0 0 127 0" result="hardAlpha"/>
<feOffset dy="4"/>
<feGaussianBlur stdDeviation="6.4"/>
<feComposite in2="hardAlpha" operator="out"/>
<feColorMatrix type="matrix" values="0 0 0 0 0 0 0 0 0 0 0 0 0 0 0 0 0 0 0.59 0"/>
<feBlend mode="normal" in2="BackgroundImageFix" result="effect1_dropShadow_18_2"/>
<feBlend mode="normal" in="SourceGraphic" in2="effect1_dropShadow_18_2" result="shape"/>
</filter>
<filter id="filter1_d_18_2" x="0.9" y="189.4" width="282.2" height="60.7" filterUnits="userSpaceOnUse" color-interpolation-filters="sRGB">
<feFlood flood-opacity="0" result="BackgroundImageFix"/>
<feColorMatrix in="SourceAlpha" type="matrix" values="0 0 0 0 0 0 0 0 0 0 0 0 0 0 0 0 0 0 127 0" result="hardAlpha"/>
<feOffset dx="1" dy="1"/>
<feGaussianBlur stdDeviation="5.55"/>
<feComposite in2="hardAlpha" operator="out"/>
<feColorMatrix type="matrix" values="0 0 0 0 0 0 0 0 0 0 0 0 0 0 0 0 0 0 1 0"/>
<feBlend mode="normal" in2="BackgroundImageFix" result="effect1_dropShadow_18_2"/>
<feBlend mode="normal" in="SourceGraphic" in2="effect1_dropShadow_18_2" result="shape"/>
</filter>
<filter id="filter2_d_18_2" x="19.6375" y="6.35463" width="248.725" height="240.289" filterUnits="userSpaceOnUse" color-interpolation-filters="sRGB">
<feFlood flood-opacity="0" result="BackgroundImageFix"/>
<feColorMatrix in="SourceAlpha" type="matrix" values="0 0 0 0 0 0 0 0 0 0 0 0 0 0 0 0 0 0 127 0" result="hardAlpha"/>
<feOffset dy="4"/>
<feGaussianBlur stdDeviation="2.65"/>
<feComposite in2="hardAlpha" operator="out"/>
<feColorMatrix type="matrix" values="0 0 0 0 0 0 0 0 0 0 0 0 0 0 0 0 0 0 0.49 0"/>
<feBlend mode="normal" in2="BackgroundImageFix" result="effect1_dropShadow_18_2"/>
<feBlend mode="normal" in="SourceGraphic" in2="effect1_dropShadow_18_2" result="shape"/>
</filter>
<filter id="filter3_d_18_2" x="20.1614" y="208.855" width="23.058" height="27.7455" filterUnits="userSpaceOnUse" color-interpolation-filters="sRGB">
<feFlood flood-opacity="0" result="BackgroundImageFix"/>
<feColorMatrix in="SourceAlpha" type="matrix" values="0 0 0 0 0 0 0 0 0 0 0 0 0 0 0 0 0 0 127 0" result="hardAlpha"/>
<feOffset dy="4"/>
<feGaussianBlur stdDeviation="3.3"/>
<feComposite in2="hardAlpha" operator="out"/>
<feColorMatrix type="matrix" values="0 0 0 0 0 0 0 0 0 0 0 0 0 0 0 0 0 0 0.5 0"/>
<feBlend mode="normal" in2="BackgroundImageFix" result="effect1_dropShadow_18_2"/>
<feBlend mode="normal" in="SourceGraphic" in2="effect1_dropShadow_18_2" result="shape"/>
</filter>
<filter id="filter4_d_18_2" x="40.1614" y="208.855" width="22.092" height="27.7455" filterUnits="userSpaceOnUse" color-interpolation-filters="sRGB">
<feFlood flood-opacity="0" result="BackgroundImageFix"/>
<feColorMatrix in="SourceAlpha" type="matrix" values="0 0 0 0 0 0 0 0 0 0 0 0 0 0 0 0 0 0 127 0" result="hardAlpha"/>
<feOffset dy="4"/>
<feGaussianBlur stdDeviation="3.3"/>
<feComposite in2="hardAlpha" operator="out"/>
<feColorMatrix type="matrix" values="0 0 0 0 0 0 0 0 0 0 0 0 0 0 0 0 0 0 0.5 0"/>
<feBlend mode="normal" in2="BackgroundImageFix" result="effect1_dropShadow_18_2"/>
<feBlend mode="normal" in="SourceGraphic" in2="effect1_dropShadow_18_2" result="shape"/>
</filter>
<filter id="filter5_d_18_2" x="59.3659" y="208.855" width="24.1091" height="27.7455" filterUnits="userSpaceOnUse" color-interpolation-filters="sRGB">
<feFlood flood-opacity="0" result="BackgroundImageFix"/>
<feColorMatrix in="SourceAlpha" type="matrix" values="0 0 0 0 0 0 0 0 0 0 0 0 0 0 0 0 0 0 127 0" result="hardAlpha"/>
<feOffset dy="4"/>
<feGaussianBlur stdDeviation="3.3"/>
<feComposite in2="hardAlpha" operator="out"/>
<feColorMatrix type="matrix" values="0 0 0 0 0 0 0 0 0 0 0 0 0 0 0 0 0 0 0.5 0"/>
<feBlend mode="normal" in2="BackgroundImageFix" result="effect1_dropShadow_18_2"/>
<feBlend mode="normal" in="SourceGraphic" in2="effect1_dropShadow_18_2" result="shape"/>
</filter>
<filter id="filter6_d_18_2" x="79.5364" y="208.656" width="23.683" height="28.2" filterUnits="userSpaceOnUse" color-interpolation-filters="sRGB">
<feFlood flood-opacity="0" result="BackgroundImageFix"/>
<feColorMatrix in="SourceAlpha" type="matrix" values="0 0 0 0 0 0 0 0 0 0 0 0 0 0 0 0 0 0 127 0" result="hardAlpha"/>
<feOffset dy="4"/>
<feGaussianBlur stdDeviation="3.3"/>
<feComposite in2="hardAlpha" operator="out"/>
<feColorMatrix type="matrix" values="0 0 0 0 0 0 0 0 0 0 0 0 0 0 0 0 0 0 0.5 0"/>
<feBlend mode="normal" in2="BackgroundImageFix" result="effect1_dropShadow_18_2"/>
<feBlend mode="normal" in="SourceGraphic" in2="effect1_dropShadow_18_2" result="shape"/>
</filter>
<filter id="filter7_d_18_2" x="189.911" y="208.855" width="25.7" height="27.7455" filterUnits="userSpaceOnUse" color-interpolation-filters="sRGB">
<feFlood flood-opacity="0" result="BackgroundImageFix"/>
<feColorMatrix in="SourceAlpha" type="matrix" values="0 0 0 0 0 0 0 0 0 0 0 0 0 0 0 0 0 0 127 0" result="hardAlpha"/>
<feOffset dy="4"/>
<feGaussianBlur stdDeviation="3.3"/>
<feComposite in2="hardAlpha" operator="out"/>
<feColorMatrix type="matrix" values="0 0 0 0 0 0 0 0 0 0 0 0 0 0 0 0 0 0 0.5 0"/>
<feBlend mode="normal" in2="BackgroundImageFix" result="effect1_dropShadow_18_2"/>
<feBlend mode="normal" in="SourceGraphic" in2="effect1_dropShadow_18_2" result="shape"/>
</filter>
<filter id="filter8_d_18_2" x="216.161" y="208.855" width="23.058" height="27.7455" filterUnits="userSpaceOnUse" color-interpolation-filters="sRGB">
<feFlood flood-opacity="0" result="BackgroundImageFix"/>
<feColorMatrix in="SourceAlpha" type="matrix" values="0 0 0 0 0 0 0 0 0 0 0 0 0 0 0 0 0 0 127 0" result="hardAlpha"/>
<feOffset dy="4"/>
<feGaussianBlur stdDeviation="3.3"/>
<feComposite in2="hardAlpha" operator="out"/>
<feColorMatrix type="matrix" values="0 0 0 0 0 0 0 0 0 0 0 0 0 0 0 0 0 0 0.5 0"/>
<feBlend mode="normal" in2="BackgroundImageFix" result="effect1_dropShadow_18_2"/>
<feBlend mode="normal" in="SourceGraphic" in2="effect1_dropShadow_18_2" result="shape"/>
</filter>
<filter id="filter9_d_18_2" x="241.161" y="208.855" width="23.058" height="27.7455" filterUnits="userSpaceOnUse" color-interpolation-filters="sRGB">
<feFlood flood-opacity="0" result="BackgroundImageFix"/>
<feColorMatrix in="SourceAlpha" type="matrix" values="0 0 0 0 0 0 0 0 0 0 0 0 0 0 0 0 0 0 127 0" result="hardAlpha"/>
<feOffset dy="4"/>
<feGaussianBlur stdDeviation="3.3"/>
<feComposite in2="hardAlpha" operator="out"/>
<feColorMatrix type="matrix" values="0 0 0 0 0 0 0 0 0 0 0 0 0 0 0 0 0 0 0.5 0"/>
<feBlend mode="normal" in2="BackgroundImageFix" result="effect1_dropShadow_18_2"/>
<feBlend mode="normal" in="SourceGraphic" in2="effect1_dropShadow_18_2" result="shape"/>
</filter>
<linearGradient id="paint0_linear_18_2" x1="139.771" y1="19" x2="139.771" y2="268.611" gradientUnits="userSpaceOnUse">
<stop stop-color="#44EF69"/>
<stop offset="0.835" stop-color="#193375" stop-opacity="0.93"/>
<stop offset="1" stop-color="#444EAA" stop-opacity="0.96"/>
</linearGradient>
<linearGradient id="paint1_linear_18_2" x1="141" y1="199.5" x2="141" y2="238" gradientUnits="userSpaceOnUse">
<stop stop-color="#B6F6FF"/>
<stop offset="1" stop-color="#C1D6FF"/>
</linearGradient>
<linearGradient id="paint2_linear_18_2" x1="144" y1="7.65463" x2="144" y2="237.344" gradientUnits="userSpaceOnUse">
<stop/>
<stop offset="1"/>
</linearGradient>
</defs>
</svg>
